<svg xmlns="http://www.w3.org/2000/svg" version="1.1" xmlns:xlink="http://www.w3.org/1999/xlink" xmlns:svgjs="http://svgjs.dev/svgjs" width="1000" height="623" viewBox="0 0 1000 623"><g transform="matrix(1,0,0,1,-0.6060606060606233,0.2522267206477409)"><svg viewBox="0 0 396 247" data-background-color="#ea3c12" preserveAspectRatio="xMidYMid meet" height="623" width="1000" xmlns="http://www.w3.org/2000/svg" xmlns:xlink="http://www.w3.org/1999/xlink"><g id="tight-bounds" transform="matrix(1,0,0,1,0.2400000000000091,-0.09999999999999432)"><svg viewBox="0 0 395.52 247.2" height="247.2" width="395.52"><g><svg></svg></g><g><svg viewBox="0 0 395.52 247.2" height="247.2" width="395.52"><g transform="matrix(1,0,0,1,75.54432,65.61972661417323)"><svg viewBox="0 0 244.43135999999998 115.96054677165353" height="115.96054677165353" width="244.43135999999998"><g><svg viewBox="0 0 244.43135999999998 115.96054677165353" height="115.96054677165353" width="244.43135999999998"><g><svg viewBox="0 0 244.43135999999998 115.96054677165353" height="115.96054677165353" width="244.43135999999998"><g><svg viewBox="0 0 244.43135999999998 115.96054677165353" height="115.96054677165353" width="244.43135999999998"><g id="textblocktransform"><svg viewBox="0 0 244.43135999999998 115.96054677165353" height="115.96054677165353" width="244.43135999999998" id="textblock"><g><svg viewBox="0 0 244.43135999999998 115.96054677165353" height="115.96054677165353" width="244.43135999999998"><g transform="matrix(1,0,0,1,0,0)"><svg width="244.43135999999998" viewBox="5.199999809265137 -36.150001525878906 76.20000457763672 36.150001525878906" height="115.96054677165353" data-palette-color="#ffbe79"><path d="M5.2-36.15L14.5-36.15Q19.95-36.15 23.08-33.93 26.2-31.7 26.2-27L26.2-27Q26.2-24.15 24.9-22.05 23.6-19.95 21.28-18.75 18.95-17.55 15.8-17.4L15.8-17.4 15.1-19.9Q18.75-19.8 21.65-18.6 24.55-17.4 26.25-15.25 27.95-13.1 27.95-10.15L27.95-10.15Q27.95-7.45 26.95-5.53 25.95-3.6 24.25-2.38 22.55-1.15 20.4-0.58 18.25 0 15.95 0L15.95 0 5.2 0 5.2-36.15ZM10.05-20.3L15.5-20.3Q18.5-20.3 19.85-21.98 21.2-23.65 21.2-26.05L21.2-26.05Q21.2-28.9 19.45-30.2 17.7-31.5 14.75-31.5L14.75-31.5 10.05-31.5 10.05-20.3ZM10.05-4.5L15.7-4.5Q17.7-4.5 19.38-5.1 21.05-5.7 22.03-6.95 23-8.2 23-10.1L23-10.1Q23-12.2 21.88-13.4 20.75-14.6 19-15.13 17.25-15.65 15.4-15.65L15.4-15.65 10.05-15.65 10.05-4.5ZM63.5 0L51.9 0 51.9-36.15 61.75-36.15Q67.1-36.15 70.87-34.5 74.65-32.85 76.95-30.15 79.25-27.45 80.32-24.18 81.4-20.9 81.4-17.65L81.4-17.65Q81.4-13.55 79.97-10.3 78.55-7.05 76.05-4.75 73.55-2.45 70.32-1.23 67.1 0 63.5 0L63.5 0ZM56.75-31.5L56.75-4.65 62.55-4.65Q65.55-4.65 68.07-5.55 70.6-6.45 72.47-8.15 74.35-9.85 75.4-12.33 76.45-14.8 76.45-17.95L76.45-17.95Q76.45-21.3 75.35-23.83 74.25-26.35 72.35-28.05 70.45-29.75 68.05-30.63 65.65-31.5 63-31.5L63-31.5 56.75-31.5Z" opacity="1" transform="matrix(1,0,0,1,0,0)" fill="#ffbe79" class="wordmark-text-0" data-fill-palette-color="primary" id="text-0"></path></svg></g></svg></g></svg></g></svg></g></svg></g></svg></g></svg></g><path d="M158.869 59.62L158.869 10.99 384.089 10.99 384.089 236.21 158.869 236.21 158.869 187.58 169.327 187.58 169.327 225.752 373.631 225.752 373.631 21.448 169.327 21.448 169.327 59.62Z" fill="#ffbe79" stroke="transparent" data-fill-palette-color="primary"></path></svg></g><defs></defs></svg><rect width="395.52" height="247.2" fill="none" stroke="none" visibility="hidden"></rect></g></svg></g></svg>